<svg width="128" height="128" viewBox="0 0 128 128" fill="none" xmlns="http://www.w3.org/2000/svg">
<path d="M17 34.6C17 28.4394 17 25.3591 18.1989 23.0061C19.2535 20.9363 20.9363 19.2535 23.0061 18.1989C25.3591 17 28.4394 17 34.6 17H64.5C66.8213 17 67.9819 17 68.9629 17.0428C92.2734 18.0606 110.939 36.7266 111.957 60.0371C112 61.0181 112 62.1787 112 64.5C112 66.8213 112 67.9819 111.957 68.9629C110.939 92.2734 92.2734 110.939 68.9629 111.957C67.9819 112 66.8213 112 64.5 112H34.6C28.4394 112 25.3591 112 23.0061 110.801C20.9363 109.746 19.2535 108.064 18.1989 105.994C17 103.641 17 100.561 17 94.4V34.6Z" fill="#2C3E50"/>
<path d="M26 73C26 56.4315 39.4315 43 56 43C72.5685 43 86 56.4315 86 73C86 89.5685 72.5685 103 56 103H37.2821C37.0202 103 36.8892 103 36.7785 102.998C30.8769 102.879 26.1211 98.1231 26.0022 92.2215C26 92.1108 26 91.9798 26 91.7179V73Z" fill="#FFCC00"/>
<circle cx="83.5" cy="38.5" r="8.5" fill="white"/>
</svg>
